<?xml version="1.0" encoding="UTF-8"?><svg id="uuid-ef8e2593-f2a3-48b3-afbe-6dce2374e8ab" xmlns="http://www.w3.org/2000/svg" xmlns:xlink="http://www.w3.org/1999/xlink" viewBox="0 0 101 40"><defs><style>.uuid-e06870b1-d1ac-41fb-8000-1af3d5a53a97{clip-path:url(#uuid-72a4fde2-85ef-4768-bef1-2818ec8c0341);}.uuid-7bb66252-f380-4834-9396-2a92b96a9cfd,.uuid-039336db-0030-4dca-9bb8-e01d61814428{fill:none;}.uuid-7bb66252-f380-4834-9396-2a92b96a9cfd,.uuid-17dcb9d5-aeec-478a-95a7-92c3cef652a0,.uuid-f94c07fe-3c6f-4935-ad0f-dd527f0df853{stroke-width:0px;}.uuid-039336db-0030-4dca-9bb8-e01d61814428{stroke:#b29a8e;}.uuid-17dcb9d5-aeec-478a-95a7-92c3cef652a0{fill:rgba(171,145,132,.29);}.uuid-f94c07fe-3c6f-4935-ad0f-dd527f0df853{fill:#b29a8e;}</style><clipPath id="uuid-72a4fde2-85ef-4768-bef1-2818ec8c0341"><path class="uuid-7bb66252-f380-4834-9396-2a92b96a9cfd" d="M20,0h61c11.05,0,20,8.95,20,20h0c0,11.05-8.95,20-20,20H20C8.95,40,0,31.05,0,20h0C0,8.95,8.95,0,20,0Z"/></clipPath></defs><g id="uuid-e04b29a0-bfde-42b3-bb60-c23c2bb48add"><g class="uuid-e06870b1-d1ac-41fb-8000-1af3d5a53a97"><rect class="uuid-17dcb9d5-aeec-478a-95a7-92c3cef652a0" width="101" height="40"/><path class="uuid-f94c07fe-3c6f-4935-ad0f-dd527f0df853" d="M32.07,18.36c-.04-.25-.12-.48-.25-.69-.13-.21-.29-.4-.49-.56-.2-.16-.42-.28-.67-.36-.24-.09-.5-.14-.77-.14-.49,0-.91.1-1.26.29-.35.19-.63.44-.84.77-.21.32-.37.68-.48,1.09-.09.41-.14.84-.14,1.27s.05.83.14,1.23c.1.39.26.75.48,1.06.21.32.49.57.84.77.35.19.77.28,1.26.28.67,0,1.19-.21,1.57-.62.38-.41.62-.95.7-1.62h2.13c-.06.63-.2,1.19-.43,1.69-.23.5-.54.93-.92,1.29-.38.35-.83.63-1.34.81-.51.19-1.08.28-1.69.28-.77,0-1.46-.13-2.07-.39-.61-.27-1.12-.64-1.54-1.11s-.74-1.01-.97-1.64c-.22-.63-.34-1.32-.34-2.04s.11-1.44.34-2.07c.22-.64.55-1.2.97-1.68s.93-.85,1.54-1.12c.62-.27,1.31-.41,2.07-.41.55,0,1.07.08,1.55.24.49.16.93.39,1.32.7.39.3.71.67.97,1.12s.41.96.48,1.54h-2.13ZM35.68,15h1.99v3.77h.04c.25-.42.57-.72.97-.91.39-.2.77-.29,1.15-.29.53,0,.97.07,1.3.22.35.14.62.34.81.6.2.25.33.56.41.94.08.36.13.77.13,1.22v4.45h-1.99v-4.09c0-.6-.09-1.04-.28-1.33-.19-.3-.52-.45-.99-.45-.54,0-.93.16-1.18.49-.24.32-.36.84-.36,1.58v3.79h-1.99v-10ZM43.99,19.99c.03-.47.14-.85.35-1.16.21-.31.47-.56.78-.74.32-.19.67-.32,1.06-.39.4-.08.8-.13,1.2-.13.36,0,.73.03,1.11.08.37.05.71.14,1.02.29.31.15.56.36.76.63.2.26.29.61.29,1.05v3.77c0,.33.02.64.06.94.04.3.1.52.2.67h-2.02c-.04-.11-.07-.22-.1-.34-.02-.12-.03-.24-.04-.36-.32.33-.69.56-1.12.69-.43.13-.87.2-1.32.2-.35,0-.67-.04-.97-.13-.3-.08-.56-.21-.78-.39-.22-.18-.4-.4-.53-.67-.12-.27-.18-.59-.18-.97,0-.41.07-.75.21-1.01.15-.27.34-.49.56-.64.23-.16.49-.28.78-.35.3-.08.6-.15.9-.2.3-.05.59-.08.88-.11.29-.03.55-.07.77-.13.22-.06.4-.14.53-.24.13-.11.19-.27.18-.48,0-.21-.04-.38-.11-.5-.07-.13-.16-.23-.28-.29-.11-.07-.25-.12-.41-.14-.15-.03-.31-.04-.49-.04-.39,0-.7.08-.92.25-.22.17-.35.45-.39.84h-1.99ZM48.58,21.46c-.08.07-.19.14-.32.18-.12.04-.26.07-.41.1-.14.03-.29.05-.45.07-.16.02-.32.04-.48.07-.15.03-.3.07-.45.11-.14.05-.27.11-.38.2-.1.07-.19.17-.25.29-.07.12-.1.28-.1.46s.03.33.1.45c.07.12.15.22.27.29.11.07.24.11.39.14.15.03.3.04.46.04.39,0,.7-.07.91-.2.21-.13.37-.28.48-.46.1-.19.16-.37.18-.56.03-.19.04-.34.04-.45v-.74ZM52.22,17.76h1.89v1.01h.04c.25-.42.58-.72.98-.91.4-.2.81-.29,1.23-.29.53,0,.97.07,1.3.22.35.14.62.34.81.6.2.25.33.56.41.94.08.36.13.77.13,1.22v4.45h-1.99v-4.09c0-.6-.09-1.04-.28-1.33-.19-.3-.52-.45-.99-.45-.54,0-.93.16-1.18.49-.24.32-.36.84-.36,1.58v3.79h-1.99v-7.24ZM63.99,23.29c.28,0,.53-.06.74-.17.21-.11.39-.26.53-.45.14-.19.24-.4.31-.63.07-.24.11-.49.11-.76,0-.3-.03-.58-.08-.84-.06-.27-.15-.51-.28-.71s-.3-.37-.52-.49c-.21-.12-.49-.18-.81-.18-.28,0-.52.06-.73.17-.2.11-.36.27-.5.46-.13.19-.23.41-.29.66-.06.24-.08.5-.08.77s.02.52.07.78c.06.25.14.48.27.69.13.21.3.37.5.5.21.13.46.2.77.2ZM67.57,24.54c0,.29-.04.62-.13.99-.07.37-.24.72-.5,1.04-.26.33-.64.6-1.13.83-.49.22-1.16.34-1.99.34-.35,0-.72-.05-1.09-.14-.36-.08-.7-.22-1.01-.41-.3-.19-.55-.43-.76-.73-.2-.29-.31-.64-.34-1.05h1.97c.09.37.28.63.55.77.27.15.58.22.94.22.56,0,.97-.17,1.22-.5.26-.34.39-.76.38-1.27v-.95h-.03c-.21.38-.52.67-.92.85-.39.18-.81.27-1.25.27-.54,0-1.01-.09-1.4-.28-.39-.2-.71-.46-.97-.78-.25-.34-.44-.72-.56-1.16-.11-.45-.17-.92-.17-1.41,0-.47.07-.91.2-1.34.14-.44.34-.82.6-1.15.26-.34.58-.6.97-.8.39-.2.84-.29,1.34-.29.48,0,.89.09,1.25.27.36.18.67.48.91.9h.03v-.97h1.89v6.78ZM74.14,20.6c-.09-.5-.26-.89-.5-1.15-.23-.26-.59-.39-1.08-.39-.32,0-.58.06-.8.17-.21.1-.37.23-.5.39-.12.16-.21.33-.27.5-.05.18-.07.34-.08.48h3.23ZM70.91,21.86c.03.64.19,1.11.49,1.4.3.29.73.43,1.29.43.4,0,.75-.1,1.04-.29.29-.21.47-.42.53-.64h1.75c-.28.87-.71,1.49-1.29,1.86-.58.37-1.28.56-2.1.56-.57,0-1.08-.09-1.54-.27-.46-.19-.84-.45-1.16-.78-.32-.34-.56-.74-.74-1.2-.17-.47-.25-.98-.25-1.54s.09-1.05.27-1.51.43-.87.76-1.2c.33-.35.71-.62,1.16-.81.46-.2.96-.29,1.51-.29.62,0,1.15.12,1.61.36.46.23.83.55,1.12.95.3.4.51.86.64,1.37s.18,1.05.14,1.61h-5.22Z"/></g><path class="uuid-039336db-0030-4dca-9bb8-e01d61814428" d="M20,.5h61c10.77,0,19.5,8.73,19.5,19.5h0c0,10.77-8.73,19.5-19.5,19.5H20C9.23,39.5.5,30.77.5,20h0C.5,9.23,9.23.5,20,.5Z"/></g></svg>