<?xml version="1.0" encoding="UTF-8"?><svg id="uuid-59bfd793-214a-45b0-a67a-19aecdcab824" xmlns="http://www.w3.org/2000/svg" xmlns:xlink="http://www.w3.org/1999/xlink" viewBox="0 0 78 78"><defs><style>.uuid-6ef3fc1f-a71c-4f27-b9a8-38dd18482efd{fill:#ef8959;}.uuid-6ef3fc1f-a71c-4f27-b9a8-38dd18482efd,.uuid-d8ec531c-b06a-47ae-a8d4-b55e55562a23,.uuid-3ad4ee5a-6d63-444a-9fa8-91535a99fb99,.uuid-46d0b2da-9b91-4d70-8e5e-8a5a7e0e57ba,.uuid-ad41d648-a0fd-4e43-97a3-0385157e0df9,.uuid-0238cd92-5d0e-4848-b259-7b551273f635,.uuid-57d9f73e-0a43-4fd9-9979-b97e550d171f{stroke-width:0px;}.uuid-d8ec531c-b06a-47ae-a8d4-b55e55562a23{fill:none;}.uuid-3ad4ee5a-6d63-444a-9fa8-91535a99fb99{fill:#a63d37;}.uuid-46d0b2da-9b91-4d70-8e5e-8a5a7e0e57ba{fill:#f1b832;}.uuid-682ca597-5739-42b0-bab6-72b7fedba07b{clip-path:url(#uuid-04531b21-88e5-4f00-ac70-a09f61ac8bc1);}.uuid-ad41d648-a0fd-4e43-97a3-0385157e0df9{fill:#7ca883;}.uuid-0238cd92-5d0e-4848-b259-7b551273f635{fill:#ab9184;}.uuid-57d9f73e-0a43-4fd9-9979-b97e550d171f{fill:#8db5bc;}</style><clipPath id="uuid-04531b21-88e5-4f00-ac70-a09f61ac8bc1"><rect class="uuid-d8ec531c-b06a-47ae-a8d4-b55e55562a23" x="14.95" y="23.5" width="48.1" height="23.51"/></clipPath></defs><g id="uuid-5dfa979e-7e06-4e22-b54a-91b71b7268ab"><rect class="uuid-d8ec531c-b06a-47ae-a8d4-b55e55562a23" width="78" height="78" rx="10" ry="10"/><circle class="uuid-6ef3fc1f-a71c-4f27-b9a8-38dd18482efd" cx="28.85" cy="52.36" r="2.14"/><circle class="uuid-3ad4ee5a-6d63-444a-9fa8-91535a99fb99" cx="50.22" cy="52.36" r="2.14"/><circle class="uuid-ad41d648-a0fd-4e43-97a3-0385157e0df9" cx="59.84" cy="52.36" r="2.14"/><g class="uuid-682ca597-5739-42b0-bab6-72b7fedba07b"><path class="uuid-0238cd92-5d0e-4848-b259-7b551273f635" d="M21.65,34.66c0-2.07-1.5-3.76-3.35-3.76s-3.35,1.68-3.35,3.76v8.58c0,2.07,1.5,3.76,3.35,3.76s3.35-1.68,3.35-3.76v-8.58Z"/><path class="uuid-0238cd92-5d0e-4848-b259-7b551273f635" d="M32.37,30.19c0-2.07-1.5-3.76-3.35-3.76s-3.35,1.68-3.35,3.76v13.07c0,2.08,1.5,3.76,3.35,3.76s3.35-1.68,3.35-3.76v-13.07Z"/><path class="uuid-0238cd92-5d0e-4848-b259-7b551273f635" d="M43.39,37.71c0-2.07-1.5-3.76-3.35-3.76s-3.35,1.68-3.35,3.76v5.54c0,2.07,1.5,3.76,3.35,3.76s3.35-1.68,3.35-3.76v-5.54Z"/><path class="uuid-0238cd92-5d0e-4848-b259-7b551273f635" d="M53.73,27.26c0-2.07-1.5-3.76-3.35-3.76s-3.35,1.68-3.35,3.76v16c0,2.07,1.5,3.76,3.35,3.76s3.35-1.68,3.35-3.76v-16Z"/><path class="uuid-0238cd92-5d0e-4848-b259-7b551273f635" d="M63.05,34.66c0-2.07-1.5-3.76-3.35-3.76s-3.35,1.68-3.35,3.76v8.58c0,2.07,1.5,3.76,3.35,3.76s3.35-1.68,3.35-3.76v-8.58Z"/></g><circle class="uuid-46d0b2da-9b91-4d70-8e5e-8a5a7e0e57ba" cx="18.16" cy="52.36" r="2.14"/><circle class="uuid-57d9f73e-0a43-4fd9-9979-b97e550d171f" cx="39.53" cy="52.36" r="2.14"/></g></svg>