<?xml version="1.0" encoding="UTF-8"?><svg id="uuid-ec090216-b9a3-4abf-b25b-572e279d7f9d" xmlns="http://www.w3.org/2000/svg" viewBox="0 0 78 78"><defs><style>.uuid-a1be5920-de16-46be-ba25-15f059856f9e{fill:none;}.uuid-a1be5920-de16-46be-ba25-15f059856f9e,.uuid-c3a962da-3cda-44a7-996d-637952b12b5d{stroke-width:0px;}.uuid-c3a962da-3cda-44a7-996d-637952b12b5d{fill:#b29a8e;}</style></defs><g id="uuid-4761bc4f-2513-43ac-a84b-a4e2c2e1a16f"><rect class="uuid-a1be5920-de16-46be-ba25-15f059856f9e" width="78" height="78" rx="10" ry="10"/><path class="uuid-c3a962da-3cda-44a7-996d-637952b12b5d" d="M24.91,39c0-.77.12-1.47.36-2.1.24-.64.58-1.19,1.02-1.65.45-.47.98-.83,1.61-1.09.63-.26,1.32-.39,2.07-.39s1.45.13,2.07.39c.63.26,1.16.63,1.6,1.09.45.46.79,1.01,1.04,1.65.24.63.36,1.33.36,2.1s-.12,1.47-.36,2.11c-.24.63-.59,1.19-1.04,1.65-.44.46-.97.82-1.6,1.08-.63.26-1.32.39-2.07.39s-1.45-.13-2.07-.39c-.63-.26-1.16-.62-1.61-1.08-.44-.47-.78-1.02-1.02-1.65-.24-.64-.36-1.35-.36-2.11ZM27.99,39c0,.56.07,1.02.2,1.37.14.35.31.63.5.84.2.2.41.34.64.42.23.07.45.11.64.11s.41-.04.64-.11c.23-.08.45-.22.64-.42.2-.21.36-.49.49-.84.14-.35.21-.81.21-1.37s-.07-1.02-.21-1.37c-.13-.35-.29-.63-.49-.83-.2-.21-.41-.35-.64-.42-.23-.08-.45-.13-.64-.13s-.41.04-.64.13c-.23.07-.45.21-.64.42-.2.2-.36.47-.5.83-.13.35-.2.81-.2,1.37ZM36.45,44v-10h7.73v2.56h-4.65v1.25h3.99v2.38h-3.99v3.81h-3.08ZM45.36,44v-10h7.73v2.56h-4.65v1.25h3.99v2.38h-3.99v3.81h-3.08Z"/></g></svg>