<?xml version="1.0" encoding="UTF-8"?><svg id="uuid-c8661944-b5eb-4e3c-b2a0-00660f96f39c" xmlns="http://www.w3.org/2000/svg" xmlns:xlink="http://www.w3.org/1999/xlink" viewBox="0 0 78 78"><defs><style>.uuid-31b4704b-71ae-41b9-9e15-e94dfe205196{fill:none;}.uuid-31b4704b-71ae-41b9-9e15-e94dfe205196,.uuid-1925d9fc-b6ba-4923-9a30-c2b561177998,.uuid-5d6da9b7-df18-4aaf-a537-5d85cf7dd853,.uuid-8366f3a5-d903-4b33-b1a6-38e53222421a,.uuid-e80807f7-dfc3-4813-81ca-3ab0db1887ec,.uuid-fe698264-6303-44bb-ae1e-a35110aae67e,.uuid-28192b6a-e7ee-4ce2-8902-4f2ea6251f42{stroke-width:0px;}.uuid-7fa35026-b177-45be-8100-b84879a71fa1{clip-path:url(#uuid-f8275974-dc1c-4370-b9b9-f6e2f94f7072);}.uuid-1925d9fc-b6ba-4923-9a30-c2b561177998{fill:#ba9072;}.uuid-5d6da9b7-df18-4aaf-a537-5d85cf7dd853{fill:#aec4b2;}.uuid-5d6da9b7-df18-4aaf-a537-5d85cf7dd853,.uuid-8366f3a5-d903-4b33-b1a6-38e53222421a,.uuid-e80807f7-dfc3-4813-81ca-3ab0db1887ec,.uuid-fe698264-6303-44bb-ae1e-a35110aae67e,.uuid-28192b6a-e7ee-4ce2-8902-4f2ea6251f42{opacity:.7;}.uuid-e389c483-a325-476d-9035-47eb16c1f745{clip-path:url(#uuid-1d61c0ab-5016-4d4b-8805-37e3d82589d2);}.uuid-8366f3a5-d903-4b33-b1a6-38e53222421a{fill:#ddaca8;}.uuid-e80807f7-dfc3-4813-81ca-3ab0db1887ec{fill:#d8ae39;}.uuid-fe698264-6303-44bb-ae1e-a35110aae67e{fill:#81aeef;}.uuid-28192b6a-e7ee-4ce2-8902-4f2ea6251f42{fill:#ef9659;}.uuid-4be7194a-c7d2-435e-881b-cdc73dade425{clip-path:url(#uuid-5f83d9b3-2d6d-428b-b13f-455c65e8bb84);}</style><clipPath id="uuid-5f83d9b3-2d6d-428b-b13f-455c65e8bb84"><rect class="uuid-31b4704b-71ae-41b9-9e15-e94dfe205196" x="13" y="23" width="9" height="15"/></clipPath><clipPath id="uuid-1d61c0ab-5016-4d4b-8805-37e3d82589d2"><rect class="uuid-31b4704b-71ae-41b9-9e15-e94dfe205196" x="47" y="35" width="14" height="12"/></clipPath><clipPath id="uuid-f8275974-dc1c-4370-b9b9-f6e2f94f7072"><rect class="uuid-31b4704b-71ae-41b9-9e15-e94dfe205196" x="55" y="48" width="11" height="11"/></clipPath></defs><g id="uuid-48013309-1b27-41ec-9dc1-c528e8f9dc0a"><rect class="uuid-31b4704b-71ae-41b9-9e15-e94dfe205196" width="78" height="78" rx="10" ry="10"/><path class="uuid-1925d9fc-b6ba-4923-9a30-c2b561177998" d="M37.97,26.85c.58.01,1.16.03,1.74.04,1.04-.93,2.08-1.85,3.12-2.78.09-.05.28-.13.52-.11.44.04.68.41.71.46v10c-.02.06-.12.34-.41.5-.36.2-.71.04-.76.02-1.01-.91-2.01-1.82-3.01-2.74h-1.97c-.07-.03-.19-.11-.3-.23-.14-.16-.18-.34-.2-.43-.02-1.39-.04-2.78-.06-4.18.03-.08.1-.23.26-.37.14-.13.29-.17.37-.2h0Z"/><path class="uuid-1925d9fc-b6ba-4923-9a30-c2b561177998" d="M45.72,27.82c-.12-.34-.07-.71.13-.91.29-.29.72-.08.79-.04.08.04.42.22.71,1.02.47,1.31.18,2.53.12,2.77-.14.57-.36,1.42-.92,1.6-.31.1-.74,0-.87-.29-.11-.24.01-.55.09-.76.12-.32.29-.5.35-.59.2-.27.34-.81.06-1.98"/><path class="uuid-1925d9fc-b6ba-4923-9a30-c2b561177998" d="M46.98,25.96c.34.27.95.83,1.35,1.72.69,1.56.23,3,.11,3.37-.37,1.09-1.05,1.78-1.43,2.12-.14.28-.1.61.11.84.2.23.52.32.81.23.38-.35.91-.93,1.35-1.77.21-.4.47-1.02.62-1.81.26-1.44-.05-2.57-.13-2.86-.46-1.59-1.46-2.57-1.92-2.96-.29-.12-.61-.06-.81.15-.25.24-.27.66-.04.97h0Z"/><g class="uuid-4be7194a-c7d2-435e-881b-cdc73dade425"><path class="uuid-1925d9fc-b6ba-4923-9a30-c2b561177998" d="M19.81,26.43c-1.25-1.01-2.71-.69-3.16-.56-.21.06-1.94.58-2.53,2.29-.33.96-.24,2.14.23,3.03.49.9,1.26,1.25,1.5,2.43.06.3.07.56.07.74,1.1.03,2.19.05,3.3.07-.03-.21-.05-.53.03-.88.17-.76.66-1.08,1.1-1.69.47-.66.73-1.43.8-2.01.13-1.08-.23-2.52-1.33-3.42h0ZM15.9,28.32c-.35.5-.31,1.01-.59,1.06-.1.02-.23-.02-.3-.11-.05-.06-.1-.15-.08-.36.05-.55.49-1.11.56-1.19.59-.72,1.08-.81,1.2-.81.03,0,.11,0,.19.05.13.09.13.29.13.32,0,.38-.67.42-1.11,1.03h0Z"/><path class="uuid-1925d9fc-b6ba-4923-9a30-c2b561177998" d="M15.88,35.78h3.38v-.73h-3.4c0,.24,0,.49.01.73Z"/><path class="uuid-1925d9fc-b6ba-4923-9a30-c2b561177998" d="M15.91,36.66c.1.25.29.36.35.4.86-.01,1.73-.03,2.59-.04.07-.05.18-.15.26-.31.1-.19.11-.36.11-.45-1.12,0-2.24-.01-3.36-.02,0,.08-.02.24.05.42Z"/><path class="uuid-1925d9fc-b6ba-4923-9a30-c2b561177998" d="M17,37.24c0,.07-.01.25.1.44.15.26.41.31.46.32.06-.01.23-.04.37-.18.22-.23.2-.54.19-.58h-1.11Z"/><path class="uuid-1925d9fc-b6ba-4923-9a30-c2b561177998" d="M14.32,26.09c.17-.18.17-.49,0-.67l-.55-.58c-.17-.18-.46-.18-.63,0-.17.18-.17.49,0,.67l.55.58c.17.18.46.18.63,0Z"/><path class="uuid-1925d9fc-b6ba-4923-9a30-c2b561177998" d="M17.54,24.77c.24,0,.45-.21.45-.47v-.83c0-.26-.2-.47-.45-.47s-.45.21-.45.47v.83c0,.26.2.47.45.47h0Z"/><path class="uuid-1925d9fc-b6ba-4923-9a30-c2b561177998" d="M21.79,24.81c-.21-.14-.48-.08-.62.14l-.43.69c-.13.22-.08.51.13.65.21.14.48.08.62-.14l.43-.69c.13-.22.08-.51-.13-.65h0Z"/></g><g class="uuid-e389c483-a325-476d-9035-47eb16c1f745"><path class="uuid-1925d9fc-b6ba-4923-9a30-c2b561177998" d="M54.18,43.25c.64,0,1.15-.54,1.15-1.21s-.52-1.21-1.15-1.21-1.15.54-1.15,1.21.52,1.21,1.15,1.21Z"/><path class="uuid-1925d9fc-b6ba-4923-9a30-c2b561177998" d="M58.87,41.31c-.48-.49-.72-.42-1.06-.89-.42-.59-.17-.89-.55-1.51-.04-.06-.53-.84-1.4-1.04-.78-.18-1.04.31-1.75.13-.7-.18-.62-.7-1.38-1.1-.83-.45-1.99-.4-2.84.17-.15.1-.77.51-1.06,1.27-.23.62-.02.89-.28,1.5-.26.61-.58.61-.97,1.18-.71,1-.59,2.23-.57,2.38.02.14.21,1.65,1.34,2.38.91.58,1.39-.01,3.05.47,1.28.37,1.34.83,2.09.76,1.04-.09,1.12-.97,2.36-1.29,1.15-.3,1.48.35,2.37-.02.96-.41,1.7-1.66,1.54-2.76-.12-.83-.74-1.45-.89-1.62h0ZM52.26,41.04s-.06.14-.29.19c-.46.11-.7-.25-1.06-.21-.42.04-.93.61-.84,1.22.08.57.67.96,1.06.89.31-.06.48-.38.86-.34.06,0,.16.02.2.1.09.16-.13.51-.36.69-.44.33-1.02.16-1.11.14-.78-.23-1.08-1.03-1.09-1.09-.04-.11-.27-.8.11-1.47.27-.47.69-.65.84-.71.61-.25,1.41-.16,1.63.24.02.03.12.21.06.36h0ZM54.18,43.71c-.88,0-1.6-.75-1.6-1.67s.72-1.67,1.6-1.67,1.6.75,1.6,1.67-.72,1.67-1.6,1.67ZM57.03,44.82v.41c-.42,0-.83,0-1.25-.01,0-.17,0-.34.01-.51.39-.22.58-.49.68-.66.07-.13.22-.38.13-.5-.06-.08-.24-.09-.34-.01-.07.05-.06.11-.14.17-.06.04-.17.08-.22.04-.08-.06-.07-.3.04-.44.15-.19.5-.18.72-.05.2.11.39.36.37.6-.01.12-.07.18-.33.49-.19.22-.32.39-.39.47h.72,0Z"/><path class="uuid-1925d9fc-b6ba-4923-9a30-c2b561177998" d="M60.64,39.21c-.27-.25-.57-.2-.9-.6-.38-.46-.18-.77-.49-1.3-.37-.64-1.16-1.05-1.84-1.06-.59,0-.68.29-1.12.19-.62-.15-.58-.78-1.27-1.18-.84-.5-1.86-.11-2.13,0-.64.25-1.31.76-1.24,1.02.08.28.96-.08,1.63.49.42.36.34.72.74.91.41.19.67-.11,1.29-.14.63-.02,1.35.26,1.79.74.61.67.28,1.29.97,1.98.37.36.5.23.89.58.97.85.77,2.15,1.08,2.17.47.04,1.5-2.94.59-3.8h0Z"/></g><g class="uuid-7fa35026-b177-45be-8100-b84879a71fa1"><path class="uuid-1925d9fc-b6ba-4923-9a30-c2b561177998" d="M61.5,53.01c-.75-2.11-2.22-3.34-3.05-3.92-.9.72-2.68,2.37-3.25,5.01-.18.83-.4,1.88.1,2.94.57,1.21,1.86,1.98,3.15,1.96,1.62-.02,2.9-1.27,3.35-2.61.44-1.3.02-2.47-.31-3.38h0ZM59.26,57.65c-.27.05-.54.09-.81.14-.13-.04-.23-.17-.22-.32,0-.12.08-.24.2-.29.09,0,.21,0,.33-.01.15-.02.28-.06.38-.09.01,0,.17.05.22.21.04.13,0,.28-.11.37h0ZM60.57,56.49c-.11.17-.21.3-.29.39-.17.11-.37.08-.45-.04-.07-.1-.03-.24-.02-.26.07-.07.18-.19.28-.34.09-.13.28-.53.31-1.01.01-.16.01-.39-.04-.66-.03-.13.02-.26.12-.33.12-.08.3-.05.4.08.05.19.1.45.11.75,0,.69-.27,1.21-.41,1.43h0Z"/><path class="uuid-1925d9fc-b6ba-4923-9a30-c2b561177998" d="M63.43,51.81c-.25.44-.7,1.43-.49,2.67.06.4.15.89.53,1.29.43.46,1.08.62,1.6.43.65-.24.97-.96.93-1.62-.04-.64-.4-1.1-.68-1.46-.66-.83-1.46-1.18-1.89-1.32h0Z"/><path class="uuid-1925d9fc-b6ba-4923-9a30-c2b561177998" d="M60.28,48c-.1.5-.23,1.55.34,2.7.18.36.41.81.89,1.09.55.32,1.22.29,1.66-.03.55-.4.64-1.19.4-1.81-.23-.6-.71-.94-1.09-1.21-.88-.61-1.75-.72-2.2-.74Z"/></g><path class="uuid-1925d9fc-b6ba-4923-9a30-c2b561177998" d="M29.38,21.67l1.22-.02c-.02,1.69-.03,3.39-.05,5.08.04,0,.98.26,1.25,1.2.27.93-.39,1.64-.44,1.7-.42.44-.94.52-1.14.54-.64.06-1.39-.21-1.79-.85-.08-.12-.46-.77-.18-1.53.29-.79,1.05-1.02,1.13-1.05,0-1.69,0-3.38,0-5.08Z"/><path class="uuid-1925d9fc-b6ba-4923-9a30-c2b561177998" d="M32.82,19.39c0,.26,0,.52.01.78h2s.19-.14.21-.37c.02-.24-.14-.39-.16-.41h-2.06Z"/><path class="uuid-1925d9fc-b6ba-4923-9a30-c2b561177998" d="M32.82,21.18c0,.26,0,.52.01.78h1.41s.13-.14.14-.37c.01-.24-.1-.39-.11-.41h-1.45Z"/><path class="uuid-1925d9fc-b6ba-4923-9a30-c2b561177998" d="M32.82,22.91c0,.26,0,.52.01.78h2s.19-.14.21-.37c.02-.24-.14-.39-.16-.41h-2.06Z"/><path class="uuid-1925d9fc-b6ba-4923-9a30-c2b561177998" d="M32.47,26.1c-.01-2.5-.02-4.99-.04-7.49-.34-.94-1.34-1.58-2.44-1.58-.98,0-1.9.49-2.34,1.28-.01,2.63-.02,5.25-.04,7.88-1.24.76-1.88,2-1.66,3.2.3,1.61,2.08,2.56,3.61,2.68,2.13.17,4.4-1.21,4.56-3.04.15-1.66-1.5-2.81-1.66-2.92ZM33.33,28.71c-.13,1.72-1.96,3.01-3.68,2.85-1.23-.11-2.67-1-2.91-2.51-.18-1.12.34-2.28,1.34-3,0-2.46.02-4.93.03-7.39.35-.73,1.09-1.2,1.88-1.2.89,0,1.69.6,1.97,1.48,0,2.34.02,4.68.03,7.02.13.11,1.46,1.19,1.34,2.74Z"/><circle class="uuid-28192b6a-e7ee-4ce2-8902-4f2ea6251f42" cx="24.2" cy="21.18" r="3.2"/><circle class="uuid-5d6da9b7-df18-4aaf-a537-5d85cf7dd853" cx="62.8" cy="35.8" r="3.2"/><circle class="uuid-e80807f7-dfc3-4813-81ca-3ab0db1887ec" cx="11.8" cy="35.07" r="3.18"/><circle class="uuid-8366f3a5-d903-4b33-b1a6-38e53222421a" cx="38.15" cy="36.27" r="3.2"/><circle class="uuid-fe698264-6303-44bb-ae1e-a35110aae67e" cx="64.2" cy="59.8" r="3.2"/></g></svg>