<?xml version="1.0" encoding="UTF-8"?><svg id="uuid-62b8e02f-5f76-47fe-af8f-a3fdb1e0b279" xmlns="http://www.w3.org/2000/svg" viewBox="0 0 78 78"><defs><style>.uuid-223c4fb0-859b-4b8e-9cf0-5eb2dc3eb152{fill:none;}.uuid-223c4fb0-859b-4b8e-9cf0-5eb2dc3eb152,.uuid-a4689405-6d84-4453-bcb0-457c4a0b8793{stroke-width:0px;}.uuid-a4689405-6d84-4453-bcb0-457c4a0b8793{fill:#ab9184;}</style></defs><g id="uuid-bbccc87a-8be8-4cee-9820-c8cd5b0ef3b1"><rect class="uuid-223c4fb0-859b-4b8e-9cf0-5eb2dc3eb152" y="0" width="78" height="78" rx="10" ry="10"/><path class="uuid-a4689405-6d84-4453-bcb0-457c4a0b8793" d="M21.14,47.6c.79.79,1.57,1.57,2.36,2.36l2.59-6.84,8.02,5.18,5.66-11.31,3.06-1.18v-5.89l2.36,2.12,6.12-11.78v5.66l-4.82,8.79-2.48-2.12v5.89l-3.23,1.18-5.96,11.31-8.44-5.18-2.73,6.84c-.83-.79-1.65-1.57-2.48-2.36"/><path class="uuid-a4689405-6d84-4453-bcb0-457c4a0b8793" d="M21.14,21.25h-.83v35.8h.83V21.25Z"/><path class="uuid-a4689405-6d84-4453-bcb0-457c4a0b8793" d="M20.31,56.64v.83h35.8v-.83H20.31Z"/><path class="uuid-a4689405-6d84-4453-bcb0-457c4a0b8793" d="M20.72,18.99l-1.96,3.39h3.92l-1.96-3.39Z"/><path class="uuid-a4689405-6d84-4453-bcb0-457c4a0b8793" d="M59.24,57.05l-3.39-1.96v3.92l3.39-1.96Z"/></g></svg>