<?xml version="1.0" encoding="UTF-8"?><svg id="uuid-8132c77f-bba1-497c-9601-e37038cbf917" xmlns="http://www.w3.org/2000/svg" viewBox="0 0 78 78"><defs><style>.uuid-24fea0a8-ebff-4d85-a283-1718c1a46e45{fill:none;}.uuid-24fea0a8-ebff-4d85-a283-1718c1a46e45,.uuid-13162cbd-79bc-44d1-9ed2-1e5c04a930a1{stroke-width:0px;}.uuid-13162cbd-79bc-44d1-9ed2-1e5c04a930a1{fill:#ab9184;}</style></defs><g id="uuid-5fa54b83-fe38-448b-8bb2-105b30b9dbb5"><path class="uuid-13162cbd-79bc-44d1-9ed2-1e5c04a930a1" d="M46.2,27h-14.4c-2.65,0-4.8,2.15-4.8,4.8v14.4c0,2.65,2.15,4.8,4.8,4.8h14.4c2.65,0,4.8-2.15,4.8-4.8v-14.4c0-2.65-2.15-4.8-4.8-4.8ZM49.27,44.59c0,2.65-2.15,4.8-4.8,4.8h-11.17c-2.65,0-4.8-2.15-4.8-4.8v-11.17c0-2.65,2.15-4.8,4.8-4.8h11.17c2.65,0,4.8,2.15,4.8,4.8v11.17Z"/><path class="uuid-13162cbd-79bc-44d1-9ed2-1e5c04a930a1" d="M32.93,47.67h5.16v-12.63h2.27l-4.76-4.58-4.52,4.21,1.86.12v12.87Z"/><path class="uuid-13162cbd-79bc-44d1-9ed2-1e5c04a930a1" d="M40.74,30.4h5.16v12.63h2.27l-4.76,4.58-4.52-4.21,1.85-.13v-12.87Z"/><rect class="uuid-24fea0a8-ebff-4d85-a283-1718c1a46e45" width="78" height="78" rx="10" ry="10"/></g></svg>