<?xml version="1.0" encoding="UTF-8"?><svg id="uuid-42c07af5-30e1-4dc7-a730-34da1ffdeff8" xmlns="http://www.w3.org/2000/svg" viewBox="0 0 26.52 29.47"><defs><style>.uuid-11aa610a-4bc1-4654-8c77-fad4b5799aeb{fill:#a17a69;stroke-width:0px;}</style></defs><g id="uuid-92434d41-0153-47bc-b3be-026d267bd43a"><path class="uuid-11aa610a-4bc1-4654-8c77-fad4b5799aeb" d="M6.23,9.01c-.73-.54-1.46-1.08-2.19-1.62,0-1.49.03-2.97.04-4.47.08-.35.31-1.09.94-1.79.67-.74,1.44-1.02,1.78-1.13h16.66c.29.04,1.24.22,2.06,1.04.82.82.98,1.78,1.02,2.07v23.11c-.04.38-.17,1.08-.64,1.79-.57.89-1.35,1.29-1.68,1.45H6.59c-.29-.08-1.2-.36-1.88-1.27-.63-.81-.72-1.66-.73-1.98l.03-4.04,2.38-1.62c-.01,1.94-.03,3.89-.05,5.83.05.11.15.26.31.4.21.2.44.3.57.35,5.34.01,10.69.04,16.02.05.13-.04.36-.12.57-.31.17-.15.29-.3.36-.42.04-7.73.07-15.45.11-23.19-.03-.13-.12-.46-.41-.71-.15-.13-.31-.2-.41-.24H7.03c-.09.01-.25.07-.41.19-.25.22-.31.52-.33.66-.09.52-.13,2.77-.07,5.83h.01Z"/><path class="uuid-11aa610a-4bc1-4654-8c77-fad4b5799aeb" d="M0,12.26c0,1.63.03,3.27.04,4.9,0,.08,0,.34.19.59.19.26.43.35.51.36,2.36,0,4.73.03,7.09.04,0,1.04.03,2.06.04,3.1-.04.31.11.62.36.78.36.23.75.05.77.04,2.81-2.45,5.62-4.89,8.43-7.34-2.85-2.48-5.69-4.94-8.54-7.42-.05,0-.41-.07-.73.19-.39.31-.35.81-.35.85.01,1.04.04,2.07.05,3.11-2.31-.03-4.64-.05-6.95-.08-.11.01-.41.09-.67.38-.16.19-.23.39-.25.5Z"/></g></svg>