<?xml version="1.0" encoding="UTF-8"?><svg id="uuid-e1430f69-e60a-4d57-9c3c-99b53da2cc17" xmlns="http://www.w3.org/2000/svg" viewBox="0 0 34.22 28.65"><defs><style>.uuid-ebbb7aa8-a91d-44c3-a8fa-408d56fffdbc{fill:#a17a69;stroke-width:0px;}</style></defs><g id="uuid-e64acfc5-bc7a-4313-a4fd-79d89e1e9ab3"><path class="uuid-ebbb7aa8-a91d-44c3-a8fa-408d56fffdbc" d="M7.73,9.44c1.3,0,2.35-1,2.35-2.23s-1.05-2.23-2.35-2.23-2.35,1-2.35,2.23,1.05,2.23,2.35,2.23Z"/><path class="uuid-ebbb7aa8-a91d-44c3-a8fa-408d56fffdbc" d="M18.56,0c-2.1,0-3.78,1.6-3.78,3.6s1.68,3.6,3.78,3.6,3.78-1.6,3.78-3.6-1.68-3.6-3.78-3.6ZM18.56,6.89c-1.91,0-3.45-1.47-3.45-3.29s1.55-3.29,3.45-3.29,3.45,1.47,3.45,3.29-1.55,3.29-3.45,3.29Z"/><path class="uuid-ebbb7aa8-a91d-44c3-a8fa-408d56fffdbc" d="M11.43,23.71c3.4,0,6.16-2.62,6.16-5.86s-2.76-5.86-6.16-5.86-6.16,2.62-6.16,5.86,2.76,5.86,6.16,5.86Z"/><path class="uuid-ebbb7aa8-a91d-44c3-a8fa-408d56fffdbc" d="M24.64,18.61c2.44,0,4.42-1.88,4.42-4.21s-1.98-4.21-4.42-4.21-4.42,1.88-4.42,4.21,1.98,4.21,4.42,4.21Z"/><path class="uuid-ebbb7aa8-a91d-44c3-a8fa-408d56fffdbc" d="M30.6,20.95c-1.99,0-3.62,1.55-3.62,3.44s1.63,3.44,3.62,3.44,3.62-1.55,3.62-3.44-1.63-3.44-3.62-3.44ZM30.6,27.6c-1.85,0-3.37-1.45-3.37-3.21s1.49-3.21,3.37-3.21,3.37,1.45,3.37,3.21-1.52,3.21-3.37,3.21Z"/><path class="uuid-ebbb7aa8-a91d-44c3-a8fa-408d56fffdbc" d="M2.76,28.65c1.53,0,2.76-1.18,2.76-2.63s-1.24-2.63-2.76-2.63-2.76,1.18-2.76,2.63,1.24,2.63,2.76,2.63Z"/><path class="uuid-ebbb7aa8-a91d-44c3-a8fa-408d56fffdbc" d="M7.1,21.62l-2.63,2.5.28.26,2.63-2.5-.28-.26Z"/><path class="uuid-ebbb7aa8-a91d-44c3-a8fa-408d56fffdbc" d="M20.36,15.3l-3.15.82.09.32,3.15-.81-.09-.32Z"/><path class="uuid-ebbb7aa8-a91d-44c3-a8fa-408d56fffdbc" d="M29.37,21.33l-2.21-3.64-.38.21,2.21,3.64.38-.21Z"/><path class="uuid-ebbb7aa8-a91d-44c3-a8fa-408d56fffdbc" d="M8.33,9.17l.95,3.33.37-.1-.95-3.33-.37.1Z"/><path class="uuid-ebbb7aa8-a91d-44c3-a8fa-408d56fffdbc" d="M17.14,6.75l-3.52,5.81.47.26,3.52-5.81-.47-.26Z"/><path class="uuid-ebbb7aa8-a91d-44c3-a8fa-408d56fffdbc" d="M31.46.37c-1.16.18-1.96,1.21-1.77,2.31.19,1.1,1.27,1.87,2.43,1.68,1.16-.18,1.96-1.21,1.77-2.31-.19-1.1-1.27-1.87-2.43-1.68ZM32.12,4.23c-1.08.16-2.1-.53-2.26-1.55-.17-1.03.55-2,1.63-2.16,1.08-.16,2.1.53,2.26,1.55.17,1.03-.55,2-1.63,2.16Z"/><path class="uuid-ebbb7aa8-a91d-44c3-a8fa-408d56fffdbc" d="M29.81,2.43l-7.61,1.16.08.47,7.61-1.16-.08-.47Z"/></g></svg>