<?xml version="1.0" encoding="UTF-8"?><svg id="uuid-d75b1b49-f7a8-4f06-8aa6-beab16e436d1" xmlns="http://www.w3.org/2000/svg" xmlns:xlink="http://www.w3.org/1999/xlink" viewBox="0 0 309 89.8"><defs><style>.uuid-abdb8ff5-45eb-4627-ae94-bff4e239cfa3{fill:none;}.uuid-abdb8ff5-45eb-4627-ae94-bff4e239cfa3,.uuid-30ff6f36-ada5-477a-a8fd-994320198220,.uuid-507be77a-dcce-4a79-90b7-b7fb963e5ce5,.uuid-e2f9d1b3-6c83-4db2-b964-633a4a07d53f,.uuid-7ded2f8e-cad7-4233-ac38-fc8eb00d3f41,.uuid-2234236a-cdb1-467f-9335-a808dfe1fb19,.uuid-50b91d4f-038e-4d7c-a235-6bcbd5ba2b2f,.uuid-df290451-188d-41c9-a7e8-5bef061eb15b,.uuid-b29a791c-241a-4920-9faa-65ddc10f0bbc,.uuid-36756182-568b-4b9e-b9bb-c79a5950e090,.uuid-0d1d757c-233a-441e-b7d7-9f4d6cf99de6,.uuid-eab5fdcc-2531-481f-9f72-ee44c5403659{stroke-width:0px;}.uuid-30ff6f36-ada5-477a-a8fd-994320198220{fill:#2c5c8c;}.uuid-507be77a-dcce-4a79-90b7-b7fb963e5ce5{fill:#b28108;}.uuid-e2f9d1b3-6c83-4db2-b964-633a4a07d53f{fill:#934f21;}.uuid-7ded2f8e-cad7-4233-ac38-fc8eb00d3f41{fill:#aec4b2;}.uuid-7ded2f8e-cad7-4233-ac38-fc8eb00d3f41,.uuid-2234236a-cdb1-467f-9335-a808dfe1fb19,.uuid-50b91d4f-038e-4d7c-a235-6bcbd5ba2b2f,.uuid-763097c8-51f5-4b23-970f-efe94846ab5e,.uuid-df290451-188d-41c9-a7e8-5bef061eb15b,.uuid-b29a791c-241a-4920-9faa-65ddc10f0bbc,.uuid-eab5fdcc-2531-481f-9f72-ee44c5403659{opacity:.7;}.uuid-c4ce4866-5ade-429f-a23c-321458b0477b{clip-path:url(#uuid-9a33ee6c-33e2-4491-971f-4757de0e20ef);}.uuid-2234236a-cdb1-467f-9335-a808dfe1fb19{fill:#ddaca8;}.uuid-50b91d4f-038e-4d7c-a235-6bcbd5ba2b2f{fill:#d8ae39;}.uuid-df290451-188d-41c9-a7e8-5bef061eb15b{fill:#81aeef;}.uuid-b29a791c-241a-4920-9faa-65ddc10f0bbc{fill:#ef9659;}.uuid-36756182-568b-4b9e-b9bb-c79a5950e090{fill:#fff;}.uuid-0d1d757c-233a-441e-b7d7-9f4d6cf99de6{fill:#aa6865;}.uuid-eab5fdcc-2531-481f-9f72-ee44c5403659{fill:#597c5d;}</style><clipPath id="uuid-9a33ee6c-33e2-4491-971f-4757de0e20ef"><rect class="uuid-abdb8ff5-45eb-4627-ae94-bff4e239cfa3" x="145.23" y="36.96" width="18.54" height="15.89"/></clipPath></defs><g id="uuid-8141a4b3-55f9-4cd0-9528-d29f62b069b5"><path class="uuid-36756182-568b-4b9e-b9bb-c79a5950e090" d="M10,0h289c5.52,0,10,3.05,10,6.8v76.2c0,3.76-4.48,6.8-10,6.8H10c-5.52,0-10-3.05-10-6.8V6.8C0,3.05,4.48,0,10,0Z"/><circle class="uuid-50b91d4f-038e-4d7c-a235-6bcbd5ba2b2f" cx="34.41" cy="44.9" r="19.86"/><g class="uuid-763097c8-51f5-4b23-970f-efe94846ab5e"><path class="uuid-507be77a-dcce-4a79-90b7-b7fb963e5ce5" d="M38.26,38.88c-2.12-1.67-4.6-1.15-5.37-.93-.35.09-3.3.97-4.3,3.79-.56,1.6-.42,3.55.4,5.01.83,1.49,2.13,2.07,2.55,4.02.11.5.12.93.11,1.23,1.86.04,3.73.08,5.6.12-.05-.35-.08-.87.06-1.46.29-1.26,1.13-1.79,1.87-2.8.8-1.09,1.24-2.38,1.36-3.32.23-1.79-.38-4.18-2.26-5.66h0ZM31.63,42.02c-.6.82-.52,1.68-1.01,1.76-.16.03-.38-.03-.51-.18-.08-.09-.16-.25-.14-.6.08-.91.84-1.83.95-1.96,1.01-1.19,1.83-1.33,2.03-1.34.06,0,.2,0,.32.08.22.15.23.49.23.54,0,.63-1.13.69-1.88,1.7h0Z"/><path class="uuid-507be77a-dcce-4a79-90b7-b7fb963e5ce5" d="M31.58,54.37h5.75v-1.21h-5.77c0,.4.02.81.02,1.21Z"/><path class="uuid-507be77a-dcce-4a79-90b7-b7fb963e5ce5" d="M31.65,55.82c.16.41.49.6.59.66,1.46-.02,2.94-.04,4.4-.06.11-.08.3-.24.45-.52.17-.31.2-.6.2-.75-1.9,0-3.81-.02-5.71-.03-.02.13-.03.39.08.69Z"/><path class="uuid-507be77a-dcce-4a79-90b7-b7fb963e5ce5" d="M33.49,56.79c0,.11-.02.42.16.73.26.43.7.52.77.54.11-.02.38-.07.63-.3.37-.38.33-.89.33-.97h-1.89Z"/><path class="uuid-507be77a-dcce-4a79-90b7-b7fb963e5ce5" d="M28.94,38.32c.29-.3.29-.81,0-1.11l-.94-.97c-.29-.3-.78-.3-1.07,0-.29.3-.29.81,0,1.11l.94.97c.29.3.78.3,1.07,0Z"/><path class="uuid-507be77a-dcce-4a79-90b7-b7fb963e5ce5" d="M34.41,36.14c.41,0,.76-.35.76-.78v-1.38c0-.43-.34-.78-.76-.78s-.76.35-.76.78v1.37c0,.43.34.78.76.78h0Z"/><path class="uuid-507be77a-dcce-4a79-90b7-b7fb963e5ce5" d="M41.64,36.21c-.35-.24-.82-.13-1.05.23l-.72,1.15c-.23.36-.13.85.22,1.08.35.24.82.13,1.05-.23l.72-1.14c.23-.36.13-.85-.22-1.08h0Z"/></g><circle class="uuid-df290451-188d-41c9-a7e8-5bef061eb15b" cx="274.59" cy="44.9" r="19.86"/><g class="uuid-763097c8-51f5-4b23-970f-efe94846ab5e"><path class="uuid-30ff6f36-ada5-477a-a8fd-994320198220" d="M276.69,43.98c-1.05-2.87-3.1-4.54-4.25-5.33-1.26.98-3.73,3.23-4.53,6.81-.25,1.13-.55,2.56.14,4,.8,1.65,2.59,2.69,4.39,2.66,2.26-.03,4.05-1.72,4.67-3.55.61-1.77.03-3.36-.43-4.59h0ZM273.56,50.3c-.38.06-.75.12-1.13.19-.19-.06-.32-.23-.31-.43,0-.17.11-.33.27-.39.13,0,.29,0,.47-.02.21-.03.39-.08.53-.13.02,0,.24.06.31.28.06.18,0,.38-.15.5h0ZM275.39,48.72c-.15.23-.29.41-.41.53-.24.15-.52.11-.63-.06-.1-.14-.04-.33-.03-.36.1-.1.24-.25.39-.46.12-.18.39-.71.44-1.37.02-.21.02-.53-.06-.9-.04-.18.03-.36.17-.45.17-.11.41-.07.55.11.08.26.14.61.15,1.01,0,.94-.38,1.65-.57,1.94h0Z"/><path class="uuid-30ff6f36-ada5-477a-a8fd-994320198220" d="M279.38,42.35c-.34.6-.97,1.94-.69,3.64.09.54.21,1.21.73,1.76.6.63,1.51.84,2.24.59.91-.32,1.35-1.31,1.3-2.21-.06-.87-.56-1.49-.95-1.98-.91-1.13-2.03-1.6-2.63-1.79h0Z"/><path class="uuid-30ff6f36-ada5-477a-a8fd-994320198220" d="M274.99,37.17c-.14.67-.32,2.11.47,3.67.25.49.57,1.1,1.25,1.48.77.44,1.7.4,2.32-.04.77-.55.89-1.62.56-2.47-.32-.81-1-1.28-1.52-1.64-1.22-.83-2.44-.98-3.07-1Z"/></g><circle class="uuid-b29a791c-241a-4920-9faa-65ddc10f0bbc" cx="214.55" cy="44.9" r="19.86"/><g class="uuid-763097c8-51f5-4b23-970f-efe94846ab5e"><path class="uuid-e2f9d1b3-6c83-4db2-b964-633a4a07d53f" d="M213.5,39.64c.65-.01,1.31-.03,1.96-.04-.02,2.72-.05,5.44-.07,8.16.06.02,1.58.42,2.01,1.92.43,1.49-.62,2.63-.71,2.72-.68.71-1.52.84-1.83.87-1.03.1-2.22-.34-2.87-1.36-.12-.2-.74-1.23-.29-2.45.46-1.26,1.68-1.64,1.81-1.68,0-2.72,0-5.43-.01-8.15Z"/><path class="uuid-e2f9d1b3-6c83-4db2-b964-633a4a07d53f" d="M219.02,35.98c0,.42.02.84.02,1.25h3.21s.3-.23.33-.59c.03-.38-.23-.63-.26-.66h-3.31Z"/><path class="uuid-e2f9d1b3-6c83-4db2-b964-633a4a07d53f" d="M219.02,38.86c0,.42.01.84.02,1.25h2.26s.21-.23.23-.59c.02-.38-.16-.63-.18-.66h-2.32Z"/><path class="uuid-e2f9d1b3-6c83-4db2-b964-633a4a07d53f" d="M219.02,41.62c0,.42.02.84.02,1.25h3.21s.3-.23.33-.59c.03-.38-.23-.63-.26-.66h-3.31Z"/><path class="uuid-e2f9d1b3-6c83-4db2-b964-633a4a07d53f" d="M218.45,46.75c-.02-4-.04-8.01-.06-12.01-.55-1.5-2.15-2.53-3.92-2.54-1.58,0-3.04.79-3.75,2.05-.02,4.22-.04,8.43-.06,12.65-1.99,1.22-3.02,3.21-2.67,5.13.48,2.59,3.34,4.1,5.79,4.3,3.42.27,7.06-1.94,7.32-4.88.24-2.66-2.4-4.51-2.67-4.69ZM219.84,50.94c-.21,2.76-3.15,4.83-5.9,4.58-1.97-.18-4.28-1.6-4.67-4.03-.29-1.79.55-3.66,2.15-4.81.02-3.95.03-7.9.05-11.86.57-1.18,1.75-1.93,3.02-1.92,1.42,0,2.71.97,3.16,2.38.02,3.75.03,7.51.05,11.26.22.17,2.34,1.9,2.15,4.39Z"/></g><circle class="uuid-7ded2f8e-cad7-4233-ac38-fc8eb00d3f41" cx="154.5" cy="44.9" r="19.86"/><g class="uuid-c4ce4866-5ade-429f-a23c-321458b0477b"><path class="uuid-eab5fdcc-2531-481f-9f72-ee44c5403659" d="M154.74,47.87c.84,0,1.53-.71,1.53-1.6s-.68-1.6-1.53-1.6-1.53.71-1.53,1.6.68,1.6,1.53,1.6Z"/><path class="uuid-eab5fdcc-2531-481f-9f72-ee44c5403659" d="M160.95,45.31c-.63-.64-.96-.55-1.4-1.18-.55-.78-.22-1.18-.73-2-.05-.08-.71-1.11-1.85-1.37-1.03-.24-1.37.41-2.31.17-.92-.24-.82-.92-1.83-1.46-1.1-.59-2.63-.53-3.76.22-.2.13-1.02.68-1.4,1.69-.31.82-.03,1.18-.37,1.99-.34.81-.77.81-1.29,1.56-.94,1.32-.78,2.96-.76,3.15.02.19.27,2.19,1.77,3.15,1.21.77,1.84-.02,4.03.62,1.7.49,1.77,1.1,2.77,1.01,1.38-.12,1.48-1.28,3.12-1.71,1.52-.4,1.97.46,3.14-.03,1.27-.54,2.25-2.2,2.05-3.66-.16-1.1-.97-1.92-1.18-2.14h0ZM152.19,44.95s-.09.18-.39.25c-.61.15-.92-.32-1.4-.27-.55.06-1.24.81-1.11,1.61.11.76.88,1.27,1.4,1.18.41-.07.64-.51,1.14-.45.08.01.21.03.27.13.12.21-.17.67-.48.91-.58.44-1.35.21-1.47.18-1.03-.31-1.42-1.37-1.45-1.44-.05-.15-.35-1.06.14-1.94.36-.63.92-.86,1.11-.95.81-.32,1.87-.21,2.16.31.02.04.16.28.07.48h0ZM154.74,48.49c-1.17,0-2.12-.99-2.12-2.21s.95-2.21,2.12-2.21,2.12.99,2.12,2.21-.95,2.21-2.12,2.21ZM158.51,49.96v.55c-.55,0-1.1-.01-1.65-.02,0-.22.01-.45.02-.67.51-.3.77-.65.89-.87.1-.17.29-.51.18-.67-.09-.11-.32-.12-.45-.02-.09.07-.07.15-.18.22-.08.06-.22.1-.29.05-.11-.08-.1-.4.05-.58.2-.26.66-.24.96-.07.27.15.52.47.49.79-.02.16-.09.24-.43.66-.25.3-.43.52-.51.63h.95,0Z"/><path class="uuid-eab5fdcc-2531-481f-9f72-ee44c5403659" d="M163.29,42.53c-.35-.33-.75-.26-1.19-.8-.5-.61-.24-1.02-.65-1.72-.49-.85-1.53-1.39-2.44-1.4-.78,0-.9.39-1.48.25-.82-.2-.77-1.04-1.68-1.57-1.11-.66-2.46-.14-2.82,0-.85.32-1.74,1-1.64,1.35.11.38,1.27-.11,2.16.66.56.48.44.96.97,1.2.55.25.88-.15,1.71-.18.84-.03,1.79.35,2.37.99.81.89.36,1.71,1.29,2.63.49.48.66.3,1.18.77,1.28,1.13,1.02,2.84,1.43,2.88.63.06,1.99-3.9.78-5.03h0Z"/></g><circle class="uuid-2234236a-cdb1-467f-9335-a808dfe1fb19" cx="94.45" cy="44.9" r="19.86"/><g class="uuid-763097c8-51f5-4b23-970f-efe94846ab5e"><path class="uuid-0d1d757c-233a-441e-b7d7-9f4d6cf99de6" d="M86.35,41.14c.84.02,1.66.04,2.5.06,1.5-1.3,2.99-2.6,4.49-3.9.12-.07.4-.19.75-.15.64.06.98.57,1.03.65v14.03c-.02.09-.17.48-.59.71-.52.27-1.03.06-1.1.03-1.45-1.28-2.89-2.56-4.33-3.84h-2.83c-.1-.05-.27-.15-.43-.33-.2-.23-.26-.47-.29-.6-.03-1.95-.06-3.91-.09-5.87.04-.11.15-.33.38-.52.2-.18.41-.24.53-.27h0Z"/><path class="uuid-0d1d757c-233a-441e-b7d7-9f4d6cf99de6" d="M97.5,42.5c-.17-.48-.1-.99.18-1.27.41-.4,1.03-.11,1.14-.06.12.06.6.31,1.02,1.43.68,1.83.26,3.54.18,3.88-.2.79-.52,1.99-1.33,2.25-.44.14-1.06,0-1.25-.41-.15-.33.02-.77.13-1.06.18-.44.41-.7.5-.83.29-.38.5-1.14.08-2.78"/><path class="uuid-0d1d757c-233a-441e-b7d7-9f4d6cf99de6" d="M99.31,39.89c.49.38,1.36,1.16,1.94,2.42.99,2.19.33,4.21.15,4.72-.53,1.53-1.51,2.5-2.06,2.98-.2.39-.14.86.16,1.18.28.32.74.45,1.17.32.54-.49,1.31-1.3,1.94-2.48.3-.56.68-1.43.89-2.54.38-2.02-.07-3.61-.18-4.01-.66-2.23-2.1-3.6-2.76-4.16-.41-.16-.88-.08-1.17.21-.36.34-.39.93-.06,1.36h-.01Z"/></g></g></svg>