<?xml version="1.0" encoding="UTF-8"?><svg id="uuid-26f54b09-547d-465e-ae7f-99bb2e960cb1" xmlns="http://www.w3.org/2000/svg" viewBox="0 0 34.63 29.76"><defs><style>.uuid-f60c94a0-5370-410c-9655-4b1002efb69d{fill:none;}.uuid-f60c94a0-5370-410c-9655-4b1002efb69d,.uuid-c2448b02-34cd-4be5-aea4-ac0c56d4c5e7{stroke:#a17a69;stroke-miterlimit:10;}.uuid-c2448b02-34cd-4be5-aea4-ac0c56d4c5e7{fill:#baa69e;}</style></defs><g id="uuid-c3f14b35-3d70-47ad-a764-9440714f7dbc"><path class="uuid-c2448b02-34cd-4be5-aea4-ac0c56d4c5e7" d="M9.81,2.25L.5,7.79v10.32l9.31,5.29,5.49-3.4c-.92,2.06-1.85,4.11-2.77,6.17.74.59,1.87,1.38,3.4,2.01,5.34,2.22,10.34.39,11.33,0,1-.39,2.34-1.04,3.78-2.14-1.17-2.68-2.35-5.37-3.52-8.05.8-.11,2.05-.4,3.27-1.26,2.69-1.88,3.61-5.34,3.28-8.05-.46-3.84-3.56-7.39-7.81-8.06-4.16-.65-8.32,1.62-10.07,5.54-2.12-1.3-4.25-2.6-6.37-3.9Z"/><polyline class="uuid-f60c94a0-5370-410c-9655-4b1002efb69d" points="9.81 23.4 9.81 11.9 .5 7.79"/><ellipse class="uuid-f60c94a0-5370-410c-9655-4b1002efb69d" cx="24.88" cy="9.69" rx="9.04" ry="8.88"/><line class="uuid-f60c94a0-5370-410c-9655-4b1002efb69d" x1="9.81" y1="11.9" x2="15.92" y2="8.56"/><path class="uuid-f60c94a0-5370-410c-9655-4b1002efb69d" d="M12.54,26.17c3.16-6.28,6.31-12.56,9.47-18.84,1.84,3.55,9.03,18.72,9.03,18.72"/></g></svg>