<?xml version="1.0" encoding="UTF-8"?><svg id="uuid-f566bbbd-1459-4e32-9cd2-247f7045eb5e" xmlns="http://www.w3.org/2000/svg" xmlns:xlink="http://www.w3.org/1999/xlink" viewBox="0 0 138.51 140.45"><defs><style>.uuid-66fa5663-41d0-4aea-bc7b-4abdc594f7d1,.uuid-01c80d32-a91b-4848-876d-b808f5661669{fill:none;}.uuid-66fa5663-41d0-4aea-bc7b-4abdc594f7d1,.uuid-b5da6d61-a0fc-4b84-a0f1-85cdc9f4d1b2,.uuid-391a3738-5848-41bc-93ba-fbbfbc94ac74{stroke-width:0px;}.uuid-43fdb8bf-bd0c-4ee0-80d4-26219c820b38{clip-path:url(#uuid-8af188cd-796a-47a2-a30b-f4107e49c226);}.uuid-01c80d32-a91b-4848-876d-b808f5661669{stroke:#fff;stroke-linecap:round;stroke-linejoin:round;stroke-width:2px;}.uuid-b5da6d61-a0fc-4b84-a0f1-85cdc9f4d1b2{fill:#c6acac;}.uuid-391a3738-5848-41bc-93ba-fbbfbc94ac74{fill:#fff;}.uuid-a1ea9127-c848-410f-b509-f5e15b137d97{clip-path:url(#uuid-5beaa74e-313f-42c6-a49b-64dcd093ce56);}</style><clipPath id="uuid-8af188cd-796a-47a2-a30b-f4107e49c226"><rect class="uuid-66fa5663-41d0-4aea-bc7b-4abdc594f7d1" x="34.1" y="36.73" width="68.19" height="69.15"/></clipPath><clipPath id="uuid-5beaa74e-313f-42c6-a49b-64dcd093ce56"><rect class="uuid-66fa5663-41d0-4aea-bc7b-4abdc594f7d1" x="36.32" y="36.32" width="66.99" height="68.16"/></clipPath></defs><g id="uuid-f9ffd7ec-81ec-43e2-ae09-fe37918dbb05"><ellipse class="uuid-b5da6d61-a0fc-4b84-a0f1-85cdc9f4d1b2" cx="69.26" cy="70.23" rx="69.26" ry="70.23"/><g class="uuid-43fdb8bf-bd0c-4ee0-80d4-26219c820b38"><g class="uuid-a1ea9127-c848-410f-b509-f5e15b137d97"><path class="uuid-391a3738-5848-41bc-93ba-fbbfbc94ac74" d="M36.32,38.45c0-.56.22-1.11.61-1.51.39-.4.93-.62,1.48-.62h12.56c.56,0,1.09.22,1.48.62.39.4.61.94.61,1.51s-.22,1.11-.61,1.51c-.39.4-.93.62-1.48.62-5.78,0-10.47,4.69-10.47,10.47v.18c0,.56-.22,1.11-.61,1.51-.39.4-.93.62-1.48.62s-1.09-.22-1.48-.62c-.39-.4-.61-.94-.61-1.51v-12.78ZM86.57,38.45c0-.56.22-1.11.61-1.51.39-.4.93-.62,1.48-.62h12.56c.56,0,1.09.22,1.48.62.39.4.61.94.61,1.51v12.78c0,.56-.22,1.11-.61,1.51-.39.4-.93.62-1.48.62s-1.09-.22-1.48-.62c-.39-.4-.61-.94-.61-1.51v-.18c0-5.78-4.69-10.47-10.47-10.47-.56,0-1.09-.22-1.48-.62-.39-.4-.61-.94-.61-1.51ZM38.42,87.45c.56,0,1.09.22,1.48.62.39.4.61.94.61,1.51v.18c0,5.78,4.69,10.47,10.47,10.47.56,0,1.09.22,1.48.62.39.4.61.94.61,1.51s-.22,1.11-.61,1.51c-.39.4-.93.62-1.48.62h-12.56c-.56,0-1.09-.22-1.48-.62-.39-.4-.61-.94-.61-1.51v-12.78c0-.56.22-1.11.61-1.51.39-.4.93-.62,1.48-.62ZM101.22,87.45c.56,0,1.09.22,1.48.62.39.4.61.94.61,1.51v12.78c0,.56-.22,1.11-.61,1.51-.39.4-.93.62-1.48.62h-12.56c-.56,0-1.09-.22-1.48-.62-.39-.4-.61-.94-.61-1.51s.22-1.11.61-1.51c.39-.4.93-.62,1.48-.62,5.78,0,10.47-4.69,10.47-10.47v-.18c0-.56.22-1.11.61-1.51.39-.4.93-.62,1.48-.62ZM53.07,55.46c0-1.16.94-2.09,2.09-2.09s2.09.94,2.09,2.09v.07c0,1.16-.94,2.09-2.09,2.09s-2.09-.94-2.09-2.09v-.07Z"/><path class="uuid-01c80d32-a91b-4848-876d-b808f5661669" d="M37.63,70.4l64.94-.57"/></g></g></g></svg>