<?xml version="1.0" encoding="UTF-8"?><svg id="uuid-2a24118f-c2c0-45b6-a79a-5f74a5f6cfbb" xmlns="http://www.w3.org/2000/svg" viewBox="0 0 78 78"><defs><style>.uuid-0e760e48-9e03-4b65-9794-7eed32cff344{fill:none;}.uuid-0e760e48-9e03-4b65-9794-7eed32cff344,.uuid-4ac9e5ee-539a-4448-87c6-df5a0a751feb{stroke-width:0px;}.uuid-4ac9e5ee-539a-4448-87c6-df5a0a751feb{fill:#ab9184;}</style></defs><g id="uuid-a8067a89-4f7c-4159-b6ae-a4821ca6ac63"><path class="uuid-4ac9e5ee-539a-4448-87c6-df5a0a751feb" d="M55.75,50.3l-14.52-25.16c-.99-1.71-3.46-1.71-4.45,0l-14.52,25.16c-.99,1.71.25,3.85,2.23,3.85h29.05c1.98,0,3.21-2.14,2.23-3.85h0ZM47.92,51.22h-17.85c-1.98,0-3.21-2.14-2.23-3.85l8.92-15.46c.99-1.71,3.46-1.71,4.45,0l8.92,15.46c.99,1.71-.25,3.85-2.23,3.85h0Z"/><path class="uuid-4ac9e5ee-539a-4448-87c6-df5a0a751feb" d="M35.99,34.99l.71,8.85h3.56l1.58-8.85h-5.85Z"/><path class="uuid-4ac9e5ee-539a-4448-87c6-df5a0a751feb" d="M38.64,49.57c1.04,0,1.88-.84,1.88-1.88s-.84-1.88-1.88-1.88-1.88.84-1.88,1.88.84,1.88,1.88,1.88Z"/><rect class="uuid-0e760e48-9e03-4b65-9794-7eed32cff344" width="78" height="78" rx="10" ry="10"/></g></svg>